<?xml version="1.0" encoding="UTF-8" standalone="no"?>
<svg width="22px" height="13px" viewBox="0 0 22 13" version="1.1" xmlns="http://www.w3.org/2000/svg" xmlns:xlink="http://www.w3.org/1999/xlink">
    <!-- Generator: Sketch 39.1 (31720) - http://www.bohemiancoding.com/sketch -->
    <title>Fill 1</title>
    <desc>Created with Sketch.</desc>
    <defs></defs>
    <g id="Page-1" stroke="none" stroke-width="1" fill="none" fill-rule="evenodd">
        <g id="Group" fill="#54B98F">
            <path d="M14.7885896,7.4939961 C14.7885896,8.00274921 15.1925242,8.41474447 15.6900861,8.41474447 C16.1872914,8.41474447 16.5908693,8.00274921 16.5908693,7.4939961 C16.5908693,6.98560743 16.1872914,6.57324773 15.6900861,6.57324773 C15.1925242,6.57324773 14.7885896,6.98560743 14.7885896,7.4939961 L14.7885896,7.4939961 Z M6.79781675,7.4939961 C6.79781675,8.00274921 6.39388208,8.41474447 5.89685519,8.41474447 C5.39893662,8.41474447 4.9957153,8.00274921 4.9957153,7.4939961 C4.9957153,6.98560743 5.39893662,6.57324773 5.89685519,6.57324773 C6.39388208,6.57324773 6.79781675,6.98560743 6.79781675,7.4939961 L6.79781675,7.4939961 Z M21.5502596,12.3947536 C21.5502596,8.6217443 19.3381601,5.33343535 16.0633467,3.60509609 L17.7318733,0.500463049 C17.8219338,0.338653321 17.7630824,0.131289053 17.6006168,0.0421843718 C17.4413614,-0.0481958364 17.2391265,0.0112072843 17.1515628,0.176843593 L15.4643107,3.31117819 C14.0515203,2.67195688 12.4668124,2.31353376 10.7927573,2.31353376 C9.11905894,2.31353376 7.53452937,2.67177466 6.12191725,3.31099598 L4.43484355,0.176843593 C4.34727979,0.0112072843 4.14504496,-0.0481958364 3.98578948,0.0421843718 C3.82332393,0.131289053 3.76447252,0.338653321 3.85453301,0.500463049 L5.52305959,3.60491387 C2.24824625,5.33325314 0.0361466649,8.6217443 0.0361466649,12.3947536 L21.5502596,12.3947536 Z" id="Fill-1"></path>
        </g>
    </g>
</svg>